<?xml version="1.0"?>
<!-- Generated by SVGo -->
<svg width="300" height="300"
     xmlns="http://www.w3.org/2000/svg"
     xmlns:xlink="http://www.w3.org/1999/xlink">
<rect x="0" y="0" width="300" height="300" style="fill:#f8fafc" />
<rect x="29" y="29" width="7" height="7" rx="1" ry="1" style="fill:#1e40af" />
<rect x="36" y="29" width="7" height="7" rx="1" ry="1" style="fill:#1e40af" />
<rect x="43" y="29" width="7" height="7" rx="1" ry="1" style="fill:#1e40af" />
<rect x="51" y="29" width="7" height="7" rx="1" ry="1" style="fill:#1e40af" />
<rect x="58" y="29" width="7" height="7" rx="1" ry="1" style="fill:#1e40af" />
<rect x="65" y="29" width="7" height="7" rx="1" ry="1" style="fill:#1e40af" />
<rect x="73" y="29" width="7" height="7" rx="1" ry="1" style="fill:#1e40af" />
<rect x="87" y="29" width="7" height="7" rx="1" ry="1" style="fill:#1e40af" />
<rect x="102" y="29" width="7" height="7" rx="1" ry="1" style="fill:#1e40af" />
<rect x="117" y="29" width="7" height="7" rx="1" ry="1" style="fill:#1e40af" />
<rect x="131" y="29" width="7" height="7" rx="1" ry="1" style="fill:#1e40af" />
<rect x="139" y="29" width="7" height="7" rx="1" ry="1" style="fill:#1e40af" />
<rect x="153" y="29" width="7" height="7" rx="1" ry="1" style="fill:#1e40af" />
<rect x="160" y="29" width="7" height="7" rx="1" ry="1" style="fill:#1e40af" />
<rect x="175" y="29" width="7" height="7" rx="1" ry="1" style="fill:#1e40af" />
<rect x="190" y="29" width="7" height="7" rx="1" ry="1" style="fill:#1e40af" />
<rect x="219" y="29" width="7" height="7" rx="1" ry="1" style="fill:#1e40af" />
<rect x="226" y="29" width="7" height="7" rx="1" ry="1" style="fill:#1e40af" />
<rect x="234" y="29" width="7" height="7" rx="1" ry="1" style="fill:#1e40af" />
<rect x="241" y="29" width="7" height="7" rx="1" ry="1" style="fill:#1e40af" />
<rect x="248" y="29" width="7" height="7" rx="1" ry="1" style="fill:#1e40af" />
<rect x="256" y="29" width="7" height="7" rx="1" ry="1" style="fill:#1e40af" />
<rect x="263" y="29" width="7" height="7" rx="1" ry="1" style="fill:#1e40af" />
<rect x="29" y="36" width="7" height="7" rx="1" ry="1" style="fill:#1e40af" />
<rect x="73" y="36" width="7" height="7" rx="1" ry="1" style="fill:#1e40af" />
<rect x="87" y="36" width="7" height="7" rx="1" ry="1" style="fill:#1e40af" />
<rect x="109" y="36" width="7" height="7" rx="1" ry="1" style="fill:#1e40af" />
<rect x="131" y="36" width="7" height="7" rx="1" ry="1" style="fill:#1e40af" />
<rect x="160" y="36" width="7" height="7" rx="1" ry="1" style="fill:#1e40af" />
<rect x="182" y="36" width="7" height="7" rx="1" ry="1" style="fill:#1e40af" />
<rect x="190" y="36" width="7" height="7" rx="1" ry="1" style="fill:#1e40af" />
<rect x="219" y="36" width="7" height="7" rx="1" ry="1" style="fill:#1e40af" />
<rect x="263" y="36" width="7" height="7" rx="1" ry="1" style="fill:#1e40af" />
<rect x="29" y="43" width="7" height="7" rx="1" ry="1" style="fill:#1e40af" />
<rect x="43" y="43" width="7" height="7" rx="1" ry="1" style="fill:#1e40af" />
<rect x="51" y="43" width="7" height="7" rx="1" ry="1" style="fill:#1e40af" />
<rect x="58" y="43" width="7" height="7" rx="1" ry="1" style="fill:#1e40af" />
<rect x="73" y="43" width="7" height="7" rx="1" ry="1" style="fill:#1e40af" />
<rect x="95" y="43" width="7" height="7" rx="1" ry="1" style="fill:#1e40af" />
<rect x="109" y="43" width="7" height="7" rx="1" ry="1" style="fill:#1e40af" />
<rect x="124" y="43" width="7" height="7" rx="1" ry="1" style="fill:#1e40af" />
<rect x="131" y="43" width="7" height="7" rx="1" ry="1" style="fill:#1e40af" />
<rect x="146" y="43" width="7" height="7" rx="1" ry="1" style="fill:#1e40af" />
<rect x="168" y="43" width="7" height="7" rx="1" ry="1" style="fill:#1e40af" />
<rect x="182" y="43" width="7" height="7" rx="1" ry="1" style="fill:#1e40af" />
<rect x="190" y="43" width="7" height="7" rx="1" ry="1" style="fill:#1e40af" />
<rect x="219" y="43" width="7" height="7" rx="1" ry="1" style="fill:#1e40af" />
<rect x="234" y="43" width="7" height="7" rx="1" ry="1" style="fill:#1e40af" />
<rect x="241" y="43" width="7" height="7" rx="1" ry="1" style="fill:#1e40af" />
<rect x="248" y="43" width="7" height="7" rx="1" ry="1" style="fill:#1e40af" />
<rect x="263" y="43" width="7" height="7" rx="1" ry="1" style="fill:#1e40af" />
<rect x="29" y="51" width="7" height="7" rx="1" ry="1" style="fill:#1e40af" />
<rect x="43" y="51" width="7" height="7" rx="1" ry="1" style="fill:#1e40af" />
<rect x="51" y="51" width="7" height="7" rx="1" ry="1" style="fill:#1e40af" />
<rect x="58" y="51" width="7" height="7" rx="1" ry="1" style="fill:#1e40af" />
<rect x="73" y="51" width="7" height="7" rx="1" ry="1" style="fill:#1e40af" />
<rect x="95" y="51" width="7" height="7" rx="1" ry="1" style="fill:#1e40af" />
<rect x="102" y="51" width="7" height="7" rx="1" ry="1" style="fill:#1e40af" />
<rect x="117" y="51" width="7" height="7" rx="1" ry="1" style="fill:#1e40af" />
<rect x="124" y="51" width="7" height="7" rx="1" ry="1" style="fill:#1e40af" />
<rect x="160" y="51" width="7" height="7" rx="1" ry="1" style="fill:#1e40af" />
<rect x="175" y="51" width="7" height="7" rx="1" ry="1" style="fill:#1e40af" />
<rect x="190" y="51" width="7" height="7" rx="1" ry="1" style="fill:#1e40af" />
<rect x="204" y="51" width="7" height="7" rx="1" ry="1" style="fill:#1e40af" />
<rect x="219" y="51" width="7" height="7" rx="1" ry="1" style="fill:#1e40af" />
<rect x="234" y="51" width="7" height="7" rx="1" ry="1" style="fill:#1e40af" />
<rect x="241" y="51" width="7" height="7" rx="1" ry="1" style="fill:#1e40af" />
<rect x="248" y="51" width="7" height="7" rx="1" ry="1" style="fill:#1e40af" />
<rect x="263" y="51" width="7" height="7" rx="1" ry="1" style="fill:#1e40af" />
<rect x="29" y="58" width="7" height="7" rx="1" ry="1" style="fill:#1e40af" />
<rect x="43" y="58" width="7" height="7" rx="1" ry="1" style="fill:#1e40af" />
<rect x="51" y="58" width="7" height="7" rx="1" ry="1" style="fill:#1e40af" />
<rect x="58" y="58" width="7" height="7" rx="1" ry="1" style="fill:#1e40af" />
<rect x="73" y="58" width="7" height="7" rx="1" ry="1" style="fill:#1e40af" />
<rect x="95" y="58" width="7" height="7" rx="1" ry="1" style="fill:#1e40af" />
<rect x="102" y="58" width="7" height="7" rx="1" ry="1" style="fill:#1e40af" />
<rect x="109" y="58" width="7" height="7" rx="1" ry="1" style="fill:#1e40af" />
<rect x="117" y="58" width="7" height="7" rx="1" ry="1" style="fill:#1e40af" />
<rect x="139" y="58" width="7" height="7" rx="1" ry="1" style="fill:#1e40af" />
<rect x="146" y="58" width="7" height="7" rx="1" ry="1" style="fill:#1e40af" />
<rect x="153" y="58" width="7" height="7" rx="1" ry="1" style="fill:#1e40af" />
<rect x="175" y="58" width="7" height="7" rx="1" ry="1" style="fill:#1e40af" />
<rect x="182" y="58" width="7" height="7" rx="1" ry="1" style="fill:#1e40af" />
<rect x="197" y="58" width="7" height="7" rx="1" ry="1" style="fill:#1e40af" />
<rect x="219" y="58" width="7" height="7" rx="1" ry="1" style="fill:#1e40af" />
<rect x="234" y="58" width="7" height="7" rx="1" ry="1" style="fill:#1e40af" />
<rect x="241" y="58" width="7" height="7" rx="1" ry="1" style="fill:#1e40af" />
<rect x="248" y="58" width="7" height="7" rx="1" ry="1" style="fill:#1e40af" />
<rect x="263" y="58" width="7" height="7" rx="1" ry="1" style="fill:#1e40af" />
<rect x="29" y="65" width="7" height="7" rx="1" ry="1" style="fill:#1e40af" />
<rect x="73" y="65" width="7" height="7" rx="1" ry="1" style="fill:#1e40af" />
<rect x="109" y="65" width="7" height="7" rx="1" ry="1" style="fill:#1e40af" />
<rect x="117" y="65" width="7" height="7" rx="1" ry="1" style="fill:#1e40af" />
<rect x="124" y="65" width="7" height="7" rx="1" ry="1" style="fill:#1e40af" />
<rect x="139" y="65" width="7" height="7" rx="1" ry="1" style="fill:#1e40af" />
<rect x="146" y="65" width="7" height="7" rx="1" ry="1" style="fill:#1e40af" />
<rect x="168" y="65" width="7" height="7" rx="1" ry="1" style="fill:#1e40af" />
<rect x="182" y="65" width="7" height="7" rx="1" ry="1" style="fill:#1e40af" />
<rect x="219" y="65" width="7" height="7" rx="1" ry="1" style="fill:#1e40af" />
<rect x="263" y="65" width="7" height="7" rx="1" ry="1" style="fill:#1e40af" />
<rect x="29" y="73" width="7" height="7" rx="1" ry="1" style="fill:#1e40af" />
<rect x="36" y="73" width="7" height="7" rx="1" ry="1" style="fill:#1e40af" />
<rect x="43" y="73" width="7" height="7" rx="1" ry="1" style="fill:#1e40af" />
<rect x="51" y="73" width="7" height="7" rx="1" ry="1" style="fill:#1e40af" />
<rect x="58" y="73" width="7" height="7" rx="1" ry="1" style="fill:#1e40af" />
<rect x="65" y="73" width="7" height="7" rx="1" ry="1" style="fill:#1e40af" />
<rect x="73" y="73" width="7" height="7" rx="1" ry="1" style="fill:#1e40af" />
<rect x="87" y="73" width="7" height="7" rx="1" ry="1" style="fill:#1e40af" />
<rect x="102" y="73" width="7" height="7" rx="1" ry="1" style="fill:#1e40af" />
<rect x="117" y="73" width="7" height="7" rx="1" ry="1" style="fill:#1e40af" />
<rect x="131" y="73" width="7" height="7" rx="1" ry="1" style="fill:#1e40af" />
<rect x="146" y="73" width="7" height="7" rx="1" ry="1" style="fill:#1e40af" />
<rect x="160" y="73" width="7" height="7" rx="1" ry="1" style="fill:#1e40af" />
<rect x="175" y="73" width="7" height="7" rx="1" ry="1" style="fill:#1e40af" />
<rect x="190" y="73" width="7" height="7" rx="1" ry="1" style="fill:#1e40af" />
<rect x="204" y="73" width="7" height="7" rx="1" ry="1" style="fill:#1e40af" />
<rect x="219" y="73" width="7" height="7" rx="1" ry="1" style="fill:#1e40af" />
<rect x="226" y="73" width="7" height="7" rx="1" ry="1" style="fill:#1e40af" />
<rect x="234" y="73" width="7" height="7" rx="1" ry="1" style="fill:#1e40af" />
<rect x="241" y="73" width="7" height="7" rx="1" ry="1" style="fill:#1e40af" />
<rect x="248" y="73" width="7" height="7" rx="1" ry="1" style="fill:#1e40af" />
<rect x="256" y="73" width="7" height="7" rx="1" ry="1" style="fill:#1e40af" />
<rect x="263" y="73" width="7" height="7" rx="1" ry="1" style="fill:#1e40af" />
<rect x="95" y="80" width="7" height="7" rx="1" ry="1" style="fill:#1e40af" />
<rect x="102" y="80" width="7" height="7" rx="1" ry="1" style="fill:#1e40af" />
<rect x="124" y="80" width="7" height="7" rx="1" ry="1" style="fill:#1e40af" />
<rect x="139" y="80" width="7" height="7" rx="1" ry="1" style="fill:#1e40af" />
<rect x="146" y="80" width="7" height="7" rx="1" ry="1" style="fill:#1e40af" />
<rect x="168" y="80" width="7" height="7" rx="1" ry="1" style="fill:#1e40af" />
<rect x="175" y="80" width="7" height="7" rx="1" ry="1" style="fill:#1e40af" />
<rect x="197" y="80" width="7" height="7" rx="1" ry="1" style="fill:#1e40af" />
<rect x="36" y="87" width="7" height="7" rx="1" ry="1" style="fill:#1e40af" />
<rect x="73" y="87" width="7" height="7" rx="1" ry="1" style="fill:#1e40af" />
<rect x="80" y="87" width="7" height="7" rx="1" ry="1" style="fill:#1e40af" />
<rect x="87" y="87" width="7" height="7" rx="1" ry="1" style="fill:#1e40af" />
<rect x="117" y="87" width="7" height="7" rx="1" ry="1" style="fill:#1e40af" />
<rect x="124" y="87" width="7" height="7" rx="1" ry="1" style="fill:#1e40af" />
<rect x="153" y="87" width="7" height="7" rx="1" ry="1" style="fill:#1e40af" />
<rect x="168" y="87" width="7" height="7" rx="1" ry="1" style="fill:#1e40af" />
<rect x="175" y="87" width="7" height="7" rx="1" ry="1" style="fill:#1e40af" />
<rect x="212" y="87" width="7" height="7" rx="1" ry="1" style="fill:#1e40af" />
<rect x="256" y="87" width="7" height="7" rx="1" ry="1" style="fill:#1e40af" />
<rect x="263" y="87" width="7" height="7" rx="1" ry="1" style="fill:#1e40af" />
<rect x="29" y="95" width="7" height="7" rx="1" ry="1" style="fill:#1e40af" />
<rect x="36" y="95" width="7" height="7" rx="1" ry="1" style="fill:#1e40af" />
<rect x="43" y="95" width="7" height="7" rx="1" ry="1" style="fill:#1e40af" />
<rect x="65" y="95" width="7" height="7" rx="1" ry="1" style="fill:#1e40af" />
<rect x="95" y="95" width="7" height="7" rx="1" ry="1" style="fill:#1e40af" />
<rect x="102" y="95" width="7" height="7" rx="1" ry="1" style="fill:#1e40af" />
<rect x="131" y="95" width="7" height="7" rx="1" ry="1" style="fill:#1e40af" />
<rect x="139" y="95" width="7" height="7" rx="1" ry="1" style="fill:#1e40af" />
<rect x="146" y="95" width="7" height="7" rx="1" ry="1" style="fill:#1e40af" />
<rect x="153" y="95" width="7" height="7" rx="1" ry="1" style="fill:#1e40af" />
<rect x="160" y="95" width="7" height="7" rx="1" ry="1" style="fill:#1e40af" />
<rect x="168" y="95" width="7" height="7" rx="1" ry="1" style="fill:#1e40af" />
<rect x="182" y="95" width="7" height="7" rx="1" ry="1" style="fill:#1e40af" />
<rect x="190" y="95" width="7" height="7" rx="1" ry="1" style="fill:#1e40af" />
<rect x="197" y="95" width="7" height="7" rx="1" ry="1" style="fill:#1e40af" />
<rect x="234" y="95" width="7" height="7" rx="1" ry="1" style="fill:#1e40af" />
<rect x="241" y="95" width="7" height="7" rx="1" ry="1" style="fill:#1e40af" />
<rect x="248" y="95" width="7" height="7" rx="1" ry="1" style="fill:#1e40af" />
<rect x="36" y="102" width="7" height="7" rx="1" ry="1" style="fill:#1e40af" />
<rect x="43" y="102" width="7" height="7" rx="1" ry="1" style="fill:#1e40af" />
<rect x="51" y="102" width="7" height="7" rx="1" ry="1" style="fill:#1e40af" />
<rect x="73" y="102" width="7" height="7" rx="1" ry="1" style="fill:#1e40af" />
<rect x="80" y="102" width="7" height="7" rx="1" ry="1" style="fill:#1e40af" />
<rect x="95" y="102" width="7" height="7" rx="1" ry="1" style="fill:#1e40af" />
<rect x="109" y="102" width="7" height="7" rx="1" ry="1" style="fill:#1e40af" />
<rect x="117" y="102" width="7" height="7" rx="1" ry="1" style="fill:#1e40af" />
<rect x="139" y="102" width="7" height="7" rx="1" ry="1" style="fill:#1e40af" />
<rect x="153" y="102" width="7" height="7" rx="1" ry="1" style="fill:#1e40af" />
<rect x="175" y="102" width="7" height="7" rx="1" ry="1" style="fill:#1e40af" />
<rect x="190" y="102" width="7" height="7" rx="1" ry="1" style="fill:#1e40af" />
<rect x="204" y="102" width="7" height="7" rx="1" ry="1" style="fill:#1e40af" />
<rect x="212" y="102" width="7" height="7" rx="1" ry="1" style="fill:#1e40af" />
<rect x="219" y="102" width="7" height="7" rx="1" ry="1" style="fill:#1e40af" />
<rect x="234" y="102" width="7" height="7" rx="1" ry="1" style="fill:#1e40af" />
<rect x="248" y="102" width="7" height="7" rx="1" ry="1" style="fill:#1e40af" />
<rect x="256" y="102" width="7" height="7" rx="1" ry="1" style="fill:#1e40af" />
<rect x="29" y="109" width="7" height="7" rx="1" ry="1" style="fill:#1e40af" />
<rect x="51" y="109" width="7" height="7" rx="1" ry="1" style="fill:#1e40af" />
<rect x="58" y="109" width="7" height="7" rx="1" ry="1" style="fill:#1e40af" />
<rect x="65" y="109" width="7" height="7" rx="1" ry="1" style="fill:#1e40af" />
<rect x="87" y="109" width="7" height="7" rx="1" ry="1" style="fill:#1e40af" />
<rect x="95" y="109" width="7" height="7" rx="1" ry="1" style="fill:#1e40af" />
<rect x="102" y="109" width="7" height="7" rx="1" ry="1" style="fill:#1e40af" />
<rect x="109" y="109" width="7" height="7" rx="1" ry="1" style="fill:#1e40af" />
<rect x="117" y="109" width="7" height="7" rx="1" ry="1" style="fill:#1e40af" />
<rect x="124" y="109" width="7" height="7" rx="1" ry="1" style="fill:#1e40af" />
<rect x="131" y="109" width="7" height="7" rx="1" ry="1" style="fill:#1e40af" />
<rect x="139" y="109" width="7" height="7" rx="1" ry="1" style="fill:#1e40af" />
<rect x="153" y="109" width="7" height="7" rx="1" ry="1" style="fill:#1e40af" />
<rect x="160" y="109" width="7" height="7" rx="1" ry="1" style="fill:#1e40af" />
<rect x="182" y="109" width="7" height="7" rx="1" ry="1" style="fill:#1e40af" />
<rect x="204" y="109" width="7" height="7" rx="1" ry="1" style="fill:#1e40af" />
<rect x="226" y="109" width="7" height="7" rx="1" ry="1" style="fill:#1e40af" />
<rect x="234" y="109" width="7" height="7" rx="1" ry="1" style="fill:#1e40af" />
<rect x="241" y="109" width="7" height="7" rx="1" ry="1" style="fill:#1e40af" />
<rect x="248" y="109" width="7" height="7" rx="1" ry="1" style="fill:#1e40af" />
<rect x="43" y="117" width="7" height="7" rx="1" ry="1" style="fill:#1e40af" />
<rect x="58" y="117" width="7" height="7" rx="1" ry="1" style="fill:#1e40af" />
<rect x="73" y="117" width="7" height="7" rx="1" ry="1" style="fill:#1e40af" />
<rect x="80" y="117" width="7" height="7" rx="1" ry="1" style="fill:#1e40af" />
<rect x="95" y="117" width="7" height="7" rx="1" ry="1" style="fill:#1e40af" />
<rect x="117" y="117" width="7" height="7" rx="1" ry="1" style="fill:#1e40af" />
<rect x="131" y="117" width="7" height="7" rx="1" ry="1" style="fill:#1e40af" />
<rect x="146" y="117" width="7" height="7" rx="1" ry="1" style="fill:#1e40af" />
<rect x="153" y="117" width="7" height="7" rx="1" ry="1" style="fill:#1e40af" />
<rect x="168" y="117" width="7" height="7" rx="1" ry="1" style="fill:#1e40af" />
<rect x="182" y="117" width="7" height="7" rx="1" ry="1" style="fill:#1e40af" />
<rect x="204" y="117" width="7" height="7" rx="1" ry="1" style="fill:#1e40af" />
<rect x="219" y="117" width="7" height="7" rx="1" ry="1" style="fill:#1e40af" />
<rect x="226" y="117" width="7" height="7" rx="1" ry="1" style="fill:#1e40af" />
<rect x="263" y="117" width="7" height="7" rx="1" ry="1" style="fill:#1e40af" />
<rect x="36" y="124" width="7" height="7" rx="1" ry="1" style="fill:#1e40af" />
<rect x="58" y="124" width="7" height="7" rx="1" ry="1" style="fill:#1e40af" />
<rect x="87" y="124" width="7" height="7" rx="1" ry="1" style="fill:#1e40af" />
<rect x="95" y="124" width="7" height="7" rx="1" ry="1" style="fill:#1e40af" />
<rect x="109" y="124" width="7" height="7" rx="1" ry="1" style="fill:#1e40af" />
<rect x="117" y="124" width="7" height="7" rx="1" ry="1" style="fill:#1e40af" />
<rect x="124" y="124" width="7" height="7" rx="1" ry="1" style="fill:#1e40af" />
<rect x="139" y="124" width="7" height="7" rx="1" ry="1" style="fill:#1e40af" />
<rect x="146" y="124" width="7" height="7" rx="1" ry="1" style="fill:#1e40af" />
<rect x="160" y="124" width="7" height="7" rx="1" ry="1" style="fill:#1e40af" />
<rect x="182" y="124" width="7" height="7" rx="1" ry="1" style="fill:#1e40af" />
<rect x="197" y="124" width="7" height="7" rx="1" ry="1" style="fill:#1e40af" />
<rect x="219" y="124" width="7" height="7" rx="1" ry="1" style="fill:#1e40af" />
<rect x="226" y="124" width="7" height="7" rx="1" ry="1" style="fill:#1e40af" />
<rect x="241" y="124" width="7" height="7" rx="1" ry="1" style="fill:#1e40af" />
<rect x="248" y="124" width="7" height="7" rx="1" ry="1" style="fill:#1e40af" />
<rect x="256" y="124" width="7" height="7" rx="1" ry="1" style="fill:#1e40af" />
<rect x="263" y="124" width="7" height="7" rx="1" ry="1" style="fill:#1e40af" />
<rect x="36" y="131" width="7" height="7" rx="1" ry="1" style="fill:#1e40af" />
<rect x="43" y="131" width="7" height="7" rx="1" ry="1" style="fill:#1e40af" />
<rect x="51" y="131" width="7" height="7" rx="1" ry="1" style="fill:#1e40af" />
<rect x="58" y="131" width="7" height="7" rx="1" ry="1" style="fill:#1e40af" />
<rect x="65" y="131" width="7" height="7" rx="1" ry="1" style="fill:#1e40af" />
<rect x="73" y="131" width="7" height="7" rx="1" ry="1" style="fill:#1e40af" />
<rect x="87" y="131" width="7" height="7" rx="1" ry="1" style="fill:#1e40af" />
<rect x="102" y="131" width="7" height="7" rx="1" ry="1" style="fill:#1e40af" />
<rect x="109" y="131" width="7" height="7" rx="1" ry="1" style="fill:#1e40af" />
<rect x="124" y="131" width="7" height="7" rx="1" ry="1" style="fill:#1e40af" />
<rect x="131" y="131" width="7" height="7" rx="1" ry="1" style="fill:#1e40af" />
<rect x="139" y="131" width="7" height="7" rx="1" ry="1" style="fill:#1e40af" />
<rect x="146" y="131" width="7" height="7" rx="1" ry="1" style="fill:#1e40af" />
<rect x="153" y="131" width="7" height="7" rx="1" ry="1" style="fill:#1e40af" />
<rect x="160" y="131" width="7" height="7" rx="1" ry="1" style="fill:#1e40af" />
<rect x="175" y="131" width="7" height="7" rx="1" ry="1" style="fill:#1e40af" />
<rect x="190" y="131" width="7" height="7" rx="1" ry="1" style="fill:#1e40af" />
<rect x="212" y="131" width="7" height="7" rx="1" ry="1" style="fill:#1e40af" />
<rect x="219" y="131" width="7" height="7" rx="1" ry="1" style="fill:#1e40af" />
<rect x="241" y="131" width="7" height="7" rx="1" ry="1" style="fill:#1e40af" />
<rect x="248" y="131" width="7" height="7" rx="1" ry="1" style="fill:#1e40af" />
<rect x="256" y="131" width="7" height="7" rx="1" ry="1" style="fill:#1e40af" />
<rect x="43" y="139" width="7" height="7" rx="1" ry="1" style="fill:#1e40af" />
<rect x="51" y="139" width="7" height="7" rx="1" ry="1" style="fill:#1e40af" />
<rect x="58" y="139" width="7" height="7" rx="1" ry="1" style="fill:#1e40af" />
<rect x="80" y="139" width="7" height="7" rx="1" ry="1" style="fill:#1e40af" />
<rect x="95" y="139" width="7" height="7" rx="1" ry="1" style="fill:#1e40af" />
<rect x="102" y="139" width="7" height="7" rx="1" ry="1" style="fill:#1e40af" />
<rect x="117" y="139" width="7" height="7" rx="1" ry="1" style="fill:#1e40af" />
<rect x="139" y="139" width="7" height="7" rx="1" ry="1" style="fill:#1e40af" />
<rect x="153" y="139" width="7" height="7" rx="1" ry="1" style="fill:#1e40af" />
<rect x="160" y="139" width="7" height="7" rx="1" ry="1" style="fill:#1e40af" />
<rect x="175" y="139" width="7" height="7" rx="1" ry="1" style="fill:#1e40af" />
<rect x="190" y="139" width="7" height="7" rx="1" ry="1" style="fill:#1e40af" />
<rect x="212" y="139" width="7" height="7" rx="1" ry="1" style="fill:#1e40af" />
<rect x="248" y="139" width="7" height="7" rx="1" ry="1" style="fill:#1e40af" />
<rect x="263" y="139" width="7" height="7" rx="1" ry="1" style="fill:#1e40af" />
<rect x="29" y="146" width="7" height="7" rx="1" ry="1" style="fill:#1e40af" />
<rect x="36" y="146" width="7" height="7" rx="1" ry="1" style="fill:#1e40af" />
<rect x="73" y="146" width="7" height="7" rx="1" ry="1" style="fill:#1e40af" />
<rect x="87" y="146" width="7" height="7" rx="1" ry="1" style="fill:#1e40af" />
<rect x="95" y="146" width="7" height="7" rx="1" ry="1" style="fill:#1e40af" />
<rect x="102" y="146" width="7" height="7" rx="1" ry="1" style="fill:#1e40af" />
<rect x="117" y="146" width="7" height="7" rx="1" ry="1" style="fill:#1e40af" />
<rect x="175" y="146" width="7" height="7" rx="1" ry="1" style="fill:#1e40af" />
<rect x="190" y="146" width="7" height="7" rx="1" ry="1" style="fill:#1e40af" />
<rect x="197" y="146" width="7" height="7" rx="1" ry="1" style="fill:#1e40af" />
<rect x="204" y="146" width="7" height="7" rx="1" ry="1" style="fill:#1e40af" />
<rect x="212" y="146" width="7" height="7" rx="1" ry="1" style="fill:#1e40af" />
<rect x="226" y="146" width="7" height="7" rx="1" ry="1" style="fill:#1e40af" />
<rect x="234" y="146" width="7" height="7" rx="1" ry="1" style="fill:#1e40af" />
<rect x="263" y="146" width="7" height="7" rx="1" ry="1" style="fill:#1e40af" />
<rect x="36" y="153" width="7" height="7" rx="1" ry="1" style="fill:#1e40af" />
<rect x="43" y="153" width="7" height="7" rx="1" ry="1" style="fill:#1e40af" />
<rect x="58" y="153" width="7" height="7" rx="1" ry="1" style="fill:#1e40af" />
<rect x="65" y="153" width="7" height="7" rx="1" ry="1" style="fill:#1e40af" />
<rect x="80" y="153" width="7" height="7" rx="1" ry="1" style="fill:#1e40af" />
<rect x="95" y="153" width="7" height="7" rx="1" ry="1" style="fill:#1e40af" />
<rect x="102" y="153" width="7" height="7" rx="1" ry="1" style="fill:#1e40af" />
<rect x="109" y="153" width="7" height="7" rx="1" ry="1" style="fill:#1e40af" />
<rect x="117" y="153" width="7" height="7" rx="1" ry="1" style="fill:#1e40af" />
<rect x="131" y="153" width="7" height="7" rx="1" ry="1" style="fill:#1e40af" />
<rect x="139" y="153" width="7" height="7" rx="1" ry="1" style="fill:#1e40af" />
<rect x="146" y="153" width="7" height="7" rx="1" ry="1" style="fill:#1e40af" />
<rect x="160" y="153" width="7" height="7" rx="1" ry="1" style="fill:#1e40af" />
<rect x="168" y="153" width="7" height="7" rx="1" ry="1" style="fill:#1e40af" />
<rect x="175" y="153" width="7" height="7" rx="1" ry="1" style="fill:#1e40af" />
<rect x="197" y="153" width="7" height="7" rx="1" ry="1" style="fill:#1e40af" />
<rect x="219" y="153" width="7" height="7" rx="1" ry="1" style="fill:#1e40af" />
<rect x="241" y="153" width="7" height="7" rx="1" ry="1" style="fill:#1e40af" />
<rect x="248" y="153" width="7" height="7" rx="1" ry="1" style="fill:#1e40af" />
<rect x="263" y="153" width="7" height="7" rx="1" ry="1" style="fill:#1e40af" />
<rect x="29" y="160" width="7" height="7" rx="1" ry="1" style="fill:#1e40af" />
<rect x="36" y="160" width="7" height="7" rx="1" ry="1" style="fill:#1e40af" />
<rect x="43" y="160" width="7" height="7" rx="1" ry="1" style="fill:#1e40af" />
<rect x="65" y="160" width="7" height="7" rx="1" ry="1" style="fill:#1e40af" />
<rect x="73" y="160" width="7" height="7" rx="1" ry="1" style="fill:#1e40af" />
<rect x="80" y="160" width="7" height="7" rx="1" ry="1" style="fill:#1e40af" />
<rect x="87" y="160" width="7" height="7" rx="1" ry="1" style="fill:#1e40af" />
<rect x="95" y="160" width="7" height="7" rx="1" ry="1" style="fill:#1e40af" />
<rect x="102" y="160" width="7" height="7" rx="1" ry="1" style="fill:#1e40af" />
<rect x="109" y="160" width="7" height="7" rx="1" ry="1" style="fill:#1e40af" />
<rect x="124" y="160" width="7" height="7" rx="1" ry="1" style="fill:#1e40af" />
<rect x="153" y="160" width="7" height="7" rx="1" ry="1" style="fill:#1e40af" />
<rect x="160" y="160" width="7" height="7" rx="1" ry="1" style="fill:#1e40af" />
<rect x="168" y="160" width="7" height="7" rx="1" ry="1" style="fill:#1e40af" />
<rect x="182" y="160" width="7" height="7" rx="1" ry="1" style="fill:#1e40af" />
<rect x="190" y="160" width="7" height="7" rx="1" ry="1" style="fill:#1e40af" />
<rect x="197" y="160" width="7" height="7" rx="1" ry="1" style="fill:#1e40af" />
<rect x="204" y="160" width="7" height="7" rx="1" ry="1" style="fill:#1e40af" />
<rect x="212" y="160" width="7" height="7" rx="1" ry="1" style="fill:#1e40af" />
<rect x="226" y="160" width="7" height="7" rx="1" ry="1" style="fill:#1e40af" />
<rect x="241" y="160" width="7" height="7" rx="1" ry="1" style="fill:#1e40af" />
<rect x="248" y="160" width="7" height="7" rx="1" ry="1" style="fill:#1e40af" />
<rect x="263" y="160" width="7" height="7" rx="1" ry="1" style="fill:#1e40af" />
<rect x="29" y="168" width="7" height="7" rx="1" ry="1" style="fill:#1e40af" />
<rect x="36" y="168" width="7" height="7" rx="1" ry="1" style="fill:#1e40af" />
<rect x="65" y="168" width="7" height="7" rx="1" ry="1" style="fill:#1e40af" />
<rect x="87" y="168" width="7" height="7" rx="1" ry="1" style="fill:#1e40af" />
<rect x="102" y="168" width="7" height="7" rx="1" ry="1" style="fill:#1e40af" />
<rect x="109" y="168" width="7" height="7" rx="1" ry="1" style="fill:#1e40af" />
<rect x="131" y="168" width="7" height="7" rx="1" ry="1" style="fill:#1e40af" />
<rect x="168" y="168" width="7" height="7" rx="1" ry="1" style="fill:#1e40af" />
<rect x="175" y="168" width="7" height="7" rx="1" ry="1" style="fill:#1e40af" />
<rect x="190" y="168" width="7" height="7" rx="1" ry="1" style="fill:#1e40af" />
<rect x="212" y="168" width="7" height="7" rx="1" ry="1" style="fill:#1e40af" />
<rect x="234" y="168" width="7" height="7" rx="1" ry="1" style="fill:#1e40af" />
<rect x="241" y="168" width="7" height="7" rx="1" ry="1" style="fill:#1e40af" />
<rect x="248" y="168" width="7" height="7" rx="1" ry="1" style="fill:#1e40af" />
<rect x="256" y="168" width="7" height="7" rx="1" ry="1" style="fill:#1e40af" />
<rect x="263" y="168" width="7" height="7" rx="1" ry="1" style="fill:#1e40af" />
<rect x="36" y="175" width="7" height="7" rx="1" ry="1" style="fill:#1e40af" />
<rect x="43" y="175" width="7" height="7" rx="1" ry="1" style="fill:#1e40af" />
<rect x="51" y="175" width="7" height="7" rx="1" ry="1" style="fill:#1e40af" />
<rect x="58" y="175" width="7" height="7" rx="1" ry="1" style="fill:#1e40af" />
<rect x="73" y="175" width="7" height="7" rx="1" ry="1" style="fill:#1e40af" />
<rect x="87" y="175" width="7" height="7" rx="1" ry="1" style="fill:#1e40af" />
<rect x="95" y="175" width="7" height="7" rx="1" ry="1" style="fill:#1e40af" />
<rect x="139" y="175" width="7" height="7" rx="1" ry="1" style="fill:#1e40af" />
<rect x="146" y="175" width="7" height="7" rx="1" ry="1" style="fill:#1e40af" />
<rect x="153" y="175" width="7" height="7" rx="1" ry="1" style="fill:#1e40af" />
<rect x="160" y="175" width="7" height="7" rx="1" ry="1" style="fill:#1e40af" />
<rect x="168" y="175" width="7" height="7" rx="1" ry="1" style="fill:#1e40af" />
<rect x="182" y="175" width="7" height="7" rx="1" ry="1" style="fill:#1e40af" />
<rect x="204" y="175" width="7" height="7" rx="1" ry="1" style="fill:#1e40af" />
<rect x="212" y="175" width="7" height="7" rx="1" ry="1" style="fill:#1e40af" />
<rect x="234" y="175" width="7" height="7" rx="1" ry="1" style="fill:#1e40af" />
<rect x="241" y="175" width="7" height="7" rx="1" ry="1" style="fill:#1e40af" />
<rect x="256" y="175" width="7" height="7" rx="1" ry="1" style="fill:#1e40af" />
<rect x="263" y="175" width="7" height="7" rx="1" ry="1" style="fill:#1e40af" />
<rect x="29" y="182" width="7" height="7" rx="1" ry="1" style="fill:#1e40af" />
<rect x="43" y="182" width="7" height="7" rx="1" ry="1" style="fill:#1e40af" />
<rect x="65" y="182" width="7" height="7" rx="1" ry="1" style="fill:#1e40af" />
<rect x="80" y="182" width="7" height="7" rx="1" ry="1" style="fill:#1e40af" />
<rect x="95" y="182" width="7" height="7" rx="1" ry="1" style="fill:#1e40af" />
<rect x="102" y="182" width="7" height="7" rx="1" ry="1" style="fill:#1e40af" />
<rect x="109" y="182" width="7" height="7" rx="1" ry="1" style="fill:#1e40af" />
<rect x="117" y="182" width="7" height="7" rx="1" ry="1" style="fill:#1e40af" />
<rect x="124" y="182" width="7" height="7" rx="1" ry="1" style="fill:#1e40af" />
<rect x="139" y="182" width="7" height="7" rx="1" ry="1" style="fill:#1e40af" />
<rect x="146" y="182" width="7" height="7" rx="1" ry="1" style="fill:#1e40af" />
<rect x="153" y="182" width="7" height="7" rx="1" ry="1" style="fill:#1e40af" />
<rect x="197" y="182" width="7" height="7" rx="1" ry="1" style="fill:#1e40af" />
<rect x="204" y="182" width="7" height="7" rx="1" ry="1" style="fill:#1e40af" />
<rect x="226" y="182" width="7" height="7" rx="1" ry="1" style="fill:#1e40af" />
<rect x="234" y="182" width="7" height="7" rx="1" ry="1" style="fill:#1e40af" />
<rect x="241" y="182" width="7" height="7" rx="1" ry="1" style="fill:#1e40af" />
<rect x="29" y="190" width="7" height="7" rx="1" ry="1" style="fill:#1e40af" />
<rect x="43" y="190" width="7" height="7" rx="1" ry="1" style="fill:#1e40af" />
<rect x="65" y="190" width="7" height="7" rx="1" ry="1" style="fill:#1e40af" />
<rect x="73" y="190" width="7" height="7" rx="1" ry="1" style="fill:#1e40af" />
<rect x="95" y="190" width="7" height="7" rx="1" ry="1" style="fill:#1e40af" />
<rect x="109" y="190" width="7" height="7" rx="1" ry="1" style="fill:#1e40af" />
<rect x="117" y="190" width="7" height="7" rx="1" ry="1" style="fill:#1e40af" />
<rect x="124" y="190" width="7" height="7" rx="1" ry="1" style="fill:#1e40af" />
<rect x="168" y="190" width="7" height="7" rx="1" ry="1" style="fill:#1e40af" />
<rect x="212" y="190" width="7" height="7" rx="1" ry="1" style="fill:#1e40af" />
<rect x="226" y="190" width="7" height="7" rx="1" ry="1" style="fill:#1e40af" />
<rect x="241" y="190" width="7" height="7" rx="1" ry="1" style="fill:#1e40af" />
<rect x="248" y="190" width="7" height="7" rx="1" ry="1" style="fill:#1e40af" />
<rect x="256" y="190" width="7" height="7" rx="1" ry="1" style="fill:#1e40af" />
<rect x="29" y="197" width="7" height="7" rx="1" ry="1" style="fill:#1e40af" />
<rect x="43" y="197" width="7" height="7" rx="1" ry="1" style="fill:#1e40af" />
<rect x="58" y="197" width="7" height="7" rx="1" ry="1" style="fill:#1e40af" />
<rect x="80" y="197" width="7" height="7" rx="1" ry="1" style="fill:#1e40af" />
<rect x="87" y="197" width="7" height="7" rx="1" ry="1" style="fill:#1e40af" />
<rect x="95" y="197" width="7" height="7" rx="1" ry="1" style="fill:#1e40af" />
<rect x="117" y="197" width="7" height="7" rx="1" ry="1" style="fill:#1e40af" />
<rect x="124" y="197" width="7" height="7" rx="1" ry="1" style="fill:#1e40af" />
<rect x="146" y="197" width="7" height="7" rx="1" ry="1" style="fill:#1e40af" />
<rect x="160" y="197" width="7" height="7" rx="1" ry="1" style="fill:#1e40af" />
<rect x="168" y="197" width="7" height="7" rx="1" ry="1" style="fill:#1e40af" />
<rect x="175" y="197" width="7" height="7" rx="1" ry="1" style="fill:#1e40af" />
<rect x="190" y="197" width="7" height="7" rx="1" ry="1" style="fill:#1e40af" />
<rect x="197" y="197" width="7" height="7" rx="1" ry="1" style="fill:#1e40af" />
<rect x="212" y="197" width="7" height="7" rx="1" ry="1" style="fill:#1e40af" />
<rect x="219" y="197" width="7" height="7" rx="1" ry="1" style="fill:#1e40af" />
<rect x="226" y="197" width="7" height="7" rx="1" ry="1" style="fill:#1e40af" />
<rect x="241" y="197" width="7" height="7" rx="1" ry="1" style="fill:#1e40af" />
<rect x="248" y="197" width="7" height="7" rx="1" ry="1" style="fill:#1e40af" />
<rect x="256" y="197" width="7" height="7" rx="1" ry="1" style="fill:#1e40af" />
<rect x="29" y="204" width="7" height="7" rx="1" ry="1" style="fill:#1e40af" />
<rect x="36" y="204" width="7" height="7" rx="1" ry="1" style="fill:#1e40af" />
<rect x="51" y="204" width="7" height="7" rx="1" ry="1" style="fill:#1e40af" />
<rect x="73" y="204" width="7" height="7" rx="1" ry="1" style="fill:#1e40af" />
<rect x="80" y="204" width="7" height="7" rx="1" ry="1" style="fill:#1e40af" />
<rect x="87" y="204" width="7" height="7" rx="1" ry="1" style="fill:#1e40af" />
<rect x="102" y="204" width="7" height="7" rx="1" ry="1" style="fill:#1e40af" />
<rect x="109" y="204" width="7" height="7" rx="1" ry="1" style="fill:#1e40af" />
<rect x="117" y="204" width="7" height="7" rx="1" ry="1" style="fill:#1e40af" />
<rect x="124" y="204" width="7" height="7" rx="1" ry="1" style="fill:#1e40af" />
<rect x="146" y="204" width="7" height="7" rx="1" ry="1" style="fill:#1e40af" />
<rect x="160" y="204" width="7" height="7" rx="1" ry="1" style="fill:#1e40af" />
<rect x="175" y="204" width="7" height="7" rx="1" ry="1" style="fill:#1e40af" />
<rect x="197" y="204" width="7" height="7" rx="1" ry="1" style="fill:#1e40af" />
<rect x="204" y="204" width="7" height="7" rx="1" ry="1" style="fill:#1e40af" />
<rect x="212" y="204" width="7" height="7" rx="1" ry="1" style="fill:#1e40af" />
<rect x="219" y="204" width="7" height="7" rx="1" ry="1" style="fill:#1e40af" />
<rect x="226" y="204" width="7" height="7" rx="1" ry="1" style="fill:#1e40af" />
<rect x="234" y="204" width="7" height="7" rx="1" ry="1" style="fill:#1e40af" />
<rect x="263" y="204" width="7" height="7" rx="1" ry="1" style="fill:#1e40af" />
<rect x="87" y="212" width="7" height="7" rx="1" ry="1" style="fill:#1e40af" />
<rect x="102" y="212" width="7" height="7" rx="1" ry="1" style="fill:#1e40af" />
<rect x="117" y="212" width="7" height="7" rx="1" ry="1" style="fill:#1e40af" />
<rect x="124" y="212" width="7" height="7" rx="1" ry="1" style="fill:#1e40af" />
<rect x="131" y="212" width="7" height="7" rx="1" ry="1" style="fill:#1e40af" />
<rect x="139" y="212" width="7" height="7" rx="1" ry="1" style="fill:#1e40af" />
<rect x="153" y="212" width="7" height="7" rx="1" ry="1" style="fill:#1e40af" />
<rect x="160" y="212" width="7" height="7" rx="1" ry="1" style="fill:#1e40af" />
<rect x="168" y="212" width="7" height="7" rx="1" ry="1" style="fill:#1e40af" />
<rect x="182" y="212" width="7" height="7" rx="1" ry="1" style="fill:#1e40af" />
<rect x="197" y="212" width="7" height="7" rx="1" ry="1" style="fill:#1e40af" />
<rect x="204" y="212" width="7" height="7" rx="1" ry="1" style="fill:#1e40af" />
<rect x="234" y="212" width="7" height="7" rx="1" ry="1" style="fill:#1e40af" />
<rect x="248" y="212" width="7" height="7" rx="1" ry="1" style="fill:#1e40af" />
<rect x="263" y="212" width="7" height="7" rx="1" ry="1" style="fill:#1e40af" />
<rect x="29" y="219" width="7" height="7" rx="1" ry="1" style="fill:#1e40af" />
<rect x="36" y="219" width="7" height="7" rx="1" ry="1" style="fill:#1e40af" />
<rect x="43" y="219" width="7" height="7" rx="1" ry="1" style="fill:#1e40af" />
<rect x="51" y="219" width="7" height="7" rx="1" ry="1" style="fill:#1e40af" />
<rect x="58" y="219" width="7" height="7" rx="1" ry="1" style="fill:#1e40af" />
<rect x="65" y="219" width="7" height="7" rx="1" ry="1" style="fill:#1e40af" />
<rect x="73" y="219" width="7" height="7" rx="1" ry="1" style="fill:#1e40af" />
<rect x="87" y="219" width="7" height="7" rx="1" ry="1" style="fill:#1e40af" />
<rect x="102" y="219" width="7" height="7" rx="1" ry="1" style="fill:#1e40af" />
<rect x="131" y="219" width="7" height="7" rx="1" ry="1" style="fill:#1e40af" />
<rect x="139" y="219" width="7" height="7" rx="1" ry="1" style="fill:#1e40af" />
<rect x="146" y="219" width="7" height="7" rx="1" ry="1" style="fill:#1e40af" />
<rect x="160" y="219" width="7" height="7" rx="1" ry="1" style="fill:#1e40af" />
<rect x="175" y="219" width="7" height="7" rx="1" ry="1" style="fill:#1e40af" />
<rect x="190" y="219" width="7" height="7" rx="1" ry="1" style="fill:#1e40af" />
<rect x="197" y="219" width="7" height="7" rx="1" ry="1" style="fill:#1e40af" />
<rect x="204" y="219" width="7" height="7" rx="1" ry="1" style="fill:#1e40af" />
<rect x="219" y="219" width="7" height="7" rx="1" ry="1" style="fill:#1e40af" />
<rect x="234" y="219" width="7" height="7" rx="1" ry="1" style="fill:#1e40af" />
<rect x="248" y="219" width="7" height="7" rx="1" ry="1" style="fill:#1e40af" />
<rect x="256" y="219" width="7" height="7" rx="1" ry="1" style="fill:#1e40af" />
<rect x="29" y="226" width="7" height="7" rx="1" ry="1" style="fill:#1e40af" />
<rect x="73" y="226" width="7" height="7" rx="1" ry="1" style="fill:#1e40af" />
<rect x="95" y="226" width="7" height="7" rx="1" ry="1" style="fill:#1e40af" />
<rect x="102" y="226" width="7" height="7" rx="1" ry="1" style="fill:#1e40af" />
<rect x="117" y="226" width="7" height="7" rx="1" ry="1" style="fill:#1e40af" />
<rect x="124" y="226" width="7" height="7" rx="1" ry="1" style="fill:#1e40af" />
<rect x="131" y="226" width="7" height="7" rx="1" ry="1" style="fill:#1e40af" />
<rect x="146" y="226" width="7" height="7" rx="1" ry="1" style="fill:#1e40af" />
<rect x="153" y="226" width="7" height="7" rx="1" ry="1" style="fill:#1e40af" />
<rect x="182" y="226" width="7" height="7" rx="1" ry="1" style="fill:#1e40af" />
<rect x="190" y="226" width="7" height="7" rx="1" ry="1" style="fill:#1e40af" />
<rect x="197" y="226" width="7" height="7" rx="1" ry="1" style="fill:#1e40af" />
<rect x="204" y="226" width="7" height="7" rx="1" ry="1" style="fill:#1e40af" />
<rect x="234" y="226" width="7" height="7" rx="1" ry="1" style="fill:#1e40af" />
<rect x="241" y="226" width="7" height="7" rx="1" ry="1" style="fill:#1e40af" />
<rect x="248" y="226" width="7" height="7" rx="1" ry="1" style="fill:#1e40af" />
<rect x="256" y="226" width="7" height="7" rx="1" ry="1" style="fill:#1e40af" />
<rect x="29" y="234" width="7" height="7" rx="1" ry="1" style="fill:#1e40af" />
<rect x="43" y="234" width="7" height="7" rx="1" ry="1" style="fill:#1e40af" />
<rect x="51" y="234" width="7" height="7" rx="1" ry="1" style="fill:#1e40af" />
<rect x="58" y="234" width="7" height="7" rx="1" ry="1" style="fill:#1e40af" />
<rect x="73" y="234" width="7" height="7" rx="1" ry="1" style="fill:#1e40af" />
<rect x="95" y="234" width="7" height="7" rx="1" ry="1" style="fill:#1e40af" />
<rect x="109" y="234" width="7" height="7" rx="1" ry="1" style="fill:#1e40af" />
<rect x="139" y="234" width="7" height="7" rx="1" ry="1" style="fill:#1e40af" />
<rect x="146" y="234" width="7" height="7" rx="1" ry="1" style="fill:#1e40af" />
<rect x="153" y="234" width="7" height="7" rx="1" ry="1" style="fill:#1e40af" />
<rect x="160" y="234" width="7" height="7" rx="1" ry="1" style="fill:#1e40af" />
<rect x="168" y="234" width="7" height="7" rx="1" ry="1" style="fill:#1e40af" />
<rect x="175" y="234" width="7" height="7" rx="1" ry="1" style="fill:#1e40af" />
<rect x="182" y="234" width="7" height="7" rx="1" ry="1" style="fill:#1e40af" />
<rect x="190" y="234" width="7" height="7" rx="1" ry="1" style="fill:#1e40af" />
<rect x="204" y="234" width="7" height="7" rx="1" ry="1" style="fill:#1e40af" />
<rect x="212" y="234" width="7" height="7" rx="1" ry="1" style="fill:#1e40af" />
<rect x="219" y="234" width="7" height="7" rx="1" ry="1" style="fill:#1e40af" />
<rect x="226" y="234" width="7" height="7" rx="1" ry="1" style="fill:#1e40af" />
<rect x="234" y="234" width="7" height="7" rx="1" ry="1" style="fill:#1e40af" />
<rect x="241" y="234" width="7" height="7" rx="1" ry="1" style="fill:#1e40af" />
<rect x="29" y="241" width="7" height="7" rx="1" ry="1" style="fill:#1e40af" />
<rect x="43" y="241" width="7" height="7" rx="1" ry="1" style="fill:#1e40af" />
<rect x="51" y="241" width="7" height="7" rx="1" ry="1" style="fill:#1e40af" />
<rect x="58" y="241" width="7" height="7" rx="1" ry="1" style="fill:#1e40af" />
<rect x="73" y="241" width="7" height="7" rx="1" ry="1" style="fill:#1e40af" />
<rect x="102" y="241" width="7" height="7" rx="1" ry="1" style="fill:#1e40af" />
<rect x="131" y="241" width="7" height="7" rx="1" ry="1" style="fill:#1e40af" />
<rect x="146" y="241" width="7" height="7" rx="1" ry="1" style="fill:#1e40af" />
<rect x="153" y="241" width="7" height="7" rx="1" ry="1" style="fill:#1e40af" />
<rect x="160" y="241" width="7" height="7" rx="1" ry="1" style="fill:#1e40af" />
<rect x="182" y="241" width="7" height="7" rx="1" ry="1" style="fill:#1e40af" />
<rect x="197" y="241" width="7" height="7" rx="1" ry="1" style="fill:#1e40af" />
<rect x="204" y="241" width="7" height="7" rx="1" ry="1" style="fill:#1e40af" />
<rect x="212" y="241" width="7" height="7" rx="1" ry="1" style="fill:#1e40af" />
<rect x="226" y="241" width="7" height="7" rx="1" ry="1" style="fill:#1e40af" />
<rect x="234" y="241" width="7" height="7" rx="1" ry="1" style="fill:#1e40af" />
<rect x="248" y="241" width="7" height="7" rx="1" ry="1" style="fill:#1e40af" />
<rect x="263" y="241" width="7" height="7" rx="1" ry="1" style="fill:#1e40af" />
<rect x="29" y="248" width="7" height="7" rx="1" ry="1" style="fill:#1e40af" />
<rect x="43" y="248" width="7" height="7" rx="1" ry="1" style="fill:#1e40af" />
<rect x="51" y="248" width="7" height="7" rx="1" ry="1" style="fill:#1e40af" />
<rect x="58" y="248" width="7" height="7" rx="1" ry="1" style="fill:#1e40af" />
<rect x="73" y="248" width="7" height="7" rx="1" ry="1" style="fill:#1e40af" />
<rect x="95" y="248" width="7" height="7" rx="1" ry="1" style="fill:#1e40af" />
<rect x="109" y="248" width="7" height="7" rx="1" ry="1" style="fill:#1e40af" />
<rect x="153" y="248" width="7" height="7" rx="1" ry="1" style="fill:#1e40af" />
<rect x="160" y="248" width="7" height="7" rx="1" ry="1" style="fill:#1e40af" />
<rect x="168" y="248" width="7" height="7" rx="1" ry="1" style="fill:#1e40af" />
<rect x="197" y="248" width="7" height="7" rx="1" ry="1" style="fill:#1e40af" />
<rect x="212" y="248" width="7" height="7" rx="1" ry="1" style="fill:#1e40af" />
<rect x="226" y="248" width="7" height="7" rx="1" ry="1" style="fill:#1e40af" />
<rect x="234" y="248" width="7" height="7" rx="1" ry="1" style="fill:#1e40af" />
<rect x="256" y="248" width="7" height="7" rx="1" ry="1" style="fill:#1e40af" />
<rect x="263" y="248" width="7" height="7" rx="1" ry="1" style="fill:#1e40af" />
<rect x="29" y="256" width="7" height="7" rx="1" ry="1" style="fill:#1e40af" />
<rect x="73" y="256" width="7" height="7" rx="1" ry="1" style="fill:#1e40af" />
<rect x="87" y="256" width="7" height="7" rx="1" ry="1" style="fill:#1e40af" />
<rect x="102" y="256" width="7" height="7" rx="1" ry="1" style="fill:#1e40af" />
<rect x="109" y="256" width="7" height="7" rx="1" ry="1" style="fill:#1e40af" />
<rect x="117" y="256" width="7" height="7" rx="1" ry="1" style="fill:#1e40af" />
<rect x="124" y="256" width="7" height="7" rx="1" ry="1" style="fill:#1e40af" />
<rect x="131" y="256" width="7" height="7" rx="1" ry="1" style="fill:#1e40af" />
<rect x="139" y="256" width="7" height="7" rx="1" ry="1" style="fill:#1e40af" />
<rect x="190" y="256" width="7" height="7" rx="1" ry="1" style="fill:#1e40af" />
<rect x="212" y="256" width="7" height="7" rx="1" ry="1" style="fill:#1e40af" />
<rect x="219" y="256" width="7" height="7" rx="1" ry="1" style="fill:#1e40af" />
<rect x="226" y="256" width="7" height="7" rx="1" ry="1" style="fill:#1e40af" />
<rect x="234" y="256" width="7" height="7" rx="1" ry="1" style="fill:#1e40af" />
<rect x="241" y="256" width="7" height="7" rx="1" ry="1" style="fill:#1e40af" />
<rect x="248" y="256" width="7" height="7" rx="1" ry="1" style="fill:#1e40af" />
<rect x="29" y="263" width="7" height="7" rx="1" ry="1" style="fill:#1e40af" />
<rect x="36" y="263" width="7" height="7" rx="1" ry="1" style="fill:#1e40af" />
<rect x="43" y="263" width="7" height="7" rx="1" ry="1" style="fill:#1e40af" />
<rect x="51" y="263" width="7" height="7" rx="1" ry="1" style="fill:#1e40af" />
<rect x="58" y="263" width="7" height="7" rx="1" ry="1" style="fill:#1e40af" />
<rect x="65" y="263" width="7" height="7" rx="1" ry="1" style="fill:#1e40af" />
<rect x="73" y="263" width="7" height="7" rx="1" ry="1" style="fill:#1e40af" />
<rect x="102" y="263" width="7" height="7" rx="1" ry="1" style="fill:#1e40af" />
<rect x="139" y="263" width="7" height="7" rx="1" ry="1" style="fill:#1e40af" />
<rect x="153" y="263" width="7" height="7" rx="1" ry="1" style="fill:#1e40af" />
<rect x="190" y="263" width="7" height="7" rx="1" ry="1" style="fill:#1e40af" />
<rect x="197" y="263" width="7" height="7" rx="1" ry="1" style="fill:#1e40af" />
<rect x="204" y="263" width="7" height="7" rx="1" ry="1" style="fill:#1e40af" />
<rect x="219" y="263" width="7" height="7" rx="1" ry="1" style="fill:#1e40af" />
<rect x="226" y="263" width="7" height="7" rx="1" ry="1" style="fill:#1e40af" />
<rect x="241" y="263" width="7" height="7" rx="1" ry="1" style="fill:#1e40af" />
<rect x="256" y="263" width="7" height="7" rx="1" ry="1" style="fill:#1e40af" />
</svg>
